<svg xmlns="http://www.w3.org/2000/svg" viewBox="0 0 24 24" fill="none">
  <defs>
    <linearGradient id="grad1" x1="0%" y1="0%" x2="100%" y2="100%">
      <stop offset="0%" style="stop-color:#00f2ff;stop-opacity:1" />
      <stop offset="100%" style="stop-color:#7000ff;stop-opacity:1" />
    </linearGradient>
    <filter id="glow" x="-20%" y="-20%" width="140%" height="140%">
      <feGaussianBlur stdDeviation="1" result="blur" />
      <feComposite in="SourceGraphic" in2="blur" operator="over" />
    </filter>
  </defs>
  <!-- Material Symbol 'spa' equivalent path (Lotus Flower) -->
  <path 
    d="M15.43 15.48c-1.39-.46-2.5-1.57-2.96-2.96C11.96 11 11.02 9.07 10.15 7.15c-.48-1.06-1.83-1.06-2.31 0C6.98 9.07 6.04 11 5.53 12.52c-.46 1.39-1.57 2.5-2.96 2.96C1 15.99 0 17.5 0 18c0 1.99 1.62 3.6 3.6 3.6h9.8c1.99 0 3.6-1.61 3.6-3.6 0-.5-1-2.01-1.57-2.52zM12 2C10.5 4.5 9 7.5 9 9c0 1.66 1.34 3 3 3s3-1.34 3-3c0-1.5-1.5-4.5-3-7z" 
    fill="url(#grad1)" 
    filter="url(#glow)"
    transform="translate(3, 1)"
  />
</svg>
