<svg xmlns="http://www.w3.org/2000/svg" viewBox="0 0 24 24" fill="none">
  <defs>
    <linearGradient id="grad1" x1="0%" y1="0%" x2="100%" y2="100%">
      <stop offset="0%" style="stop-color:#00f2ff;stop-opacity:1" />
      <stop offset="100%" style="stop-color:#7000ff;stop-opacity:1" />
    </linearGradient>
    <filter id="glow" x="-20%" y="-20%" width="140%" height="140%">
      <feGaussianBlur stdDeviation="0.5" result="blur" />
      <feComposite in="SourceGraphic" in2="blur" operator="over" />
    </filter>
  </defs>
  <path d="M15.43 15.48C14.04 15.02 12.93 13.91 12.47 12.52C11.96 11 11.02 9.07 10.15 7.15C9.67 6.09 8.32 6.09 7.84 7.15C6.97 9.07 6.03 11 5.52 12.52C5.06 13.91 3.95 15.02 2.56 15.48C1.01 15.99 0 17.5 0 18C0 19.99 1.62 3.6 3.6 3.6H13.4C15.39 21.6 17 19.99 17 18C17 17.5 16 16 15.43 15.48ZM12 2C10.5 4.5 9 7.5 9 9C9 10.66 10.34 12 12 12C13.66 12 15 10.66 15 9C15 7.5 13.5 4.5 12 2Z" 
  fill="url(#grad1)" 
  filter="url(#glow)"
  transform="translate(3.5, 1)"
  />
</svg>
