<svg xmlns="http://www.w3.org/2000/svg" viewBox="0 0 24 24" fill="none">
  <defs>
    <linearGradient id="grad1" x1="0%" y1="0%" x2="100%" y2="100%">
      <stop offset="0%" style="stop-color:#00f2ff;stop-opacity:1" />
      <stop offset="100%" style="stop-color:#7000ff;stop-opacity:1" />
    </linearGradient>
    <filter id="glow" x="-20%" y="-20%" width="140%" height="140%">
      <feGaussianBlur stdDeviation="0.4" result="blur" />
      <feComposite in="SourceGraphic" in2="blur" operator="over" />
    </filter>
  </defs>
  
  <g fill="url(#grad1)" filter="url(#glow)">
    {/* Central Leaf */}
    <path d="M12,2 C12,2 16,8 16,12 C16,14.209 14.209,16 12,16 C9.791,16 8,14.209 8,12 C8,8 12,2 12,2 Z M12,5.5 C12,5.5 10,9 10,12 C10,13.104 10.896,14 12,14 C13.104,14 14,13.104 14,12 C14,9 12,5.5 12,5.5 Z" fill-rule="evenodd"/>
    
    {/* Left Leaf */}
    <path d="M6,8 C6,8 9,11 9,14 C9,17 7,19 5,19 C3,19 1,17 1,14 C1,11 4,8 6,8 Z M5,10.5 C5,10.5 3,12.5 3,14 C3,15.1 3.9,16 5,16 C6.1,16 7,15.1 7,14 C7,12.5 5,10.5 5,10.5 Z" fill-rule="evenodd"/>
    
    {/* Right Leaf */}
    <path d="M18,8 C18,8 21,11 23,14 C23,17 21,19 19,19 C17,19 15,17 15,14 C15,11 18,8 18,8 Z M19,10.5 C19,10.5 21,12.5 21,14 C21,15.1 20.1,16 19,16 C17.9,16 17,15.1 17,14 C17,12.5 19,10.5 19,10.5 Z" fill-rule="evenodd"/>
  </g>
</svg>
