<svg xmlns="http://www.w3.org/2000/svg" viewBox="0 0 100 100" width="100" height="100">
  <g fill="none" stroke="#060D1B" stroke-linecap="round">
    <circle cx="50" cy="50" r="44" stroke-width="1.4"/>
    <circle cx="50" cy="50" r="22" stroke-width="0.9"/>
    <g stroke-width="1.2">
      <line x1="50" y1="6"  x2="50" y2="28"/>
      <line x1="50" y1="72" x2="50" y2="94"/>
      <line x1="6"  y1="50" x2="28" y2="50"/>
      <line x1="72" y1="50" x2="94" y2="50"/>
    </g>
    <g stroke-width="1.2" transform="rotate(45 50 50)">
      <line x1="50" y1="6"  x2="50" y2="28"/>
      <line x1="50" y1="72" x2="50" y2="94"/>
      <line x1="6"  y1="50" x2="28" y2="50"/>
      <line x1="72" y1="50" x2="94" y2="50"/>
    </g>
  </g>
  <g fill="#060D1B">
    <circle cx="50" cy="4"  r="1.7"/>
    <circle cx="50" cy="96" r="1.7"/>
    <circle cx="4"  cy="50" r="1.7"/>
    <circle cx="96" cy="50" r="1.7"/>
    <circle cx="18.97" cy="18.97" r="1.4"/>
    <circle cx="81.03" cy="18.97" r="1.4"/>
    <circle cx="18.97" cy="81.03" r="1.4"/>
    <circle cx="81.03" cy="81.03" r="1.4"/>
  </g>
  <path d="M 56,40 C 47,38 44,46 50,49 C 56,52 53,60 44,58"
        fill="none" stroke="#060D1B" stroke-width="1.7" stroke-linecap="round"/>
</svg>
