<svg xmlns="http://www.w3.org/2000/svg" viewBox="0 0 100 100" width="100" height="100">
  <g fill="none" stroke="#060D1B" stroke-width="1.8" stroke-linecap="round" stroke-linejoin="round">
    <g><path d="M50,14 C58,30 58,42 50,52 C42,42 42,30 50,14 Z"/><path d="M50,22 C54,32 54,40 50,46 C46,40 46,32 50,22"/></g>
    <g transform="rotate(60 50 50)"><path d="M50,14 C58,30 58,42 50,52 C42,42 42,30 50,14 Z"/><path d="M50,22 C54,32 54,40 50,46 C46,40 46,32 50,22"/></g>
    <g transform="rotate(120 50 50)"><path d="M50,14 C58,30 58,42 50,52 C42,42 42,30 50,14 Z"/><path d="M50,22 C54,32 54,40 50,46 C46,40 46,32 50,22"/></g>
    <g transform="rotate(180 50 50)"><path d="M50,14 C58,30 58,42 50,52 C42,42 42,30 50,14 Z"/><path d="M50,22 C54,32 54,40 50,46 C46,40 46,32 50,22"/></g>
    <g transform="rotate(240 50 50)"><path d="M50,14 C58,30 58,42 50,52 C42,42 42,30 50,14 Z"/><path d="M50,22 C54,32 54,40 50,46 C46,40 46,32 50,22"/></g>
    <g transform="rotate(300 50 50)"><path d="M50,14 C58,30 58,42 50,52 C42,42 42,30 50,14 Z"/><path d="M50,22 C54,32 54,40 50,46 C46,40 46,32 50,22"/></g>
  </g>
  <circle cx="50" cy="50" r="3.4" fill="#060D1B"/>
</svg>
