<svg xmlns="http://www.w3.org/2000/svg" viewBox="0 0 200 200" width="200" height="200">
  <defs>
    <radialGradient id="haloGn" cx="50%" cy="50%" r="50%">
      <stop offset="0%"   stop-color="#060D1B" stop-opacity="0.18"/>
      <stop offset="60%"  stop-color="#060D1B" stop-opacity="0.05"/>
      <stop offset="100%" stop-color="#060D1B" stop-opacity="0"/>
    </radialGradient>
    <radialGradient id="irisGn" cx="50%" cy="40%" r="55%">
      <stop offset="0%"   stop-color="#1C2840"/>
      <stop offset="60%"  stop-color="#0E1828"/>
      <stop offset="100%" stop-color="#060D1B"/>
    </radialGradient>
  </defs>

  <circle cx="100" cy="100" r="92" fill="url(#haloGn)"/>

  <g stroke="#060D1B" stroke-width="1" stroke-linecap="round" opacity="0.65">
    <line x1="100" y1="40"  x2="100" y2="22"/>
    <line x1="72"  y1="50"  x2="58"  y2="36"/>
    <line x1="128" y1="50"  x2="142" y2="36"/>
    <line x1="55"  y1="100" x2="38"  y2="100"/>
    <line x1="145" y1="100" x2="162" y2="100"/>
    <line x1="72"  y1="150" x2="58"  y2="164"/>
    <line x1="128" y1="150" x2="142" y2="164"/>
  </g>

  <circle cx="100" cy="14"  r="2.5" fill="#060D1B"/>
  <circle cx="100" cy="186" r="2"   fill="#060D1B" opacity="0.8"/>

  <path d="M 60,100 C 60,68 75,40 100,40 C 125,40 140,68 140,100"
        fill="none" stroke="#060D1B" stroke-width="1.6" stroke-linecap="round"/>
  <path d="M 60,100 C 60,132 75,160 100,160 C 125,160 140,132 140,100"
        fill="none" stroke="#060D1B" stroke-width="2.6" stroke-linecap="round"/>

  <circle cx="100" cy="100" r="18" fill="url(#irisGn)"/>
  <circle cx="100" cy="100" r="4.8" fill="#060D1B"/>
</svg>
