<svg xmlns="http://www.w3.org/2000/svg" viewBox="0 0 200 200" width="200" height="200">
  <defs>
    <radialGradient id="haloIn" cx="50%" cy="50%" r="50%">
      <stop offset="0%"   stop-color="#060D1B" stop-opacity="0.16"/>
      <stop offset="60%"  stop-color="#060D1B" stop-opacity="0.04"/>
      <stop offset="100%" stop-color="#060D1B" stop-opacity="0"/>
    </radialGradient>
    <radialGradient id="irisIn" cx="50%" cy="40%" r="55%">
      <stop offset="0%"   stop-color="#1C2840"/>
      <stop offset="60%"  stop-color="#0E1828"/>
      <stop offset="100%" stop-color="#060D1B"/>
    </radialGradient>
  </defs>

  <circle cx="100" cy="100" r="90" fill="url(#haloIn)"/>

  <path d="M 64,52 C 84,40 116,40 136,52"
        fill="none" stroke="#060D1B" stroke-width="1" stroke-linecap="round" opacity="0.6"/>

  <path d="M 100,55 C 60,82 60,128 100,155"
        fill="none" stroke="#060D1B" stroke-width="1.8" stroke-linecap="round"/>
  <path d="M 100,55 C 140,82 140,128 100,155"
        fill="none" stroke="#060D1B" stroke-width="2.7" stroke-linecap="round"/>

  <circle cx="100" cy="105" r="22" fill="url(#irisIn)"/>

  <path d="M 100,93 C 110,100 110,114 100,121 C 90,114 90,100 100,93 Z"
        fill="#060D1B"/>

  <path d="M 100,165 C 102.5,168 102.5,172 100,174 C 97.5,172 97.5,168 100,165 Z"
        fill="#060D1B" opacity="0.7"/>
</svg>
