<svg xmlns="http://www.w3.org/2000/svg" viewBox="0 0 200 200" width="200" height="200">
  <defs>
    <radialGradient id="haloHn" cx="50%" cy="50%" r="55%">
      <stop offset="0%"   stop-color="#060D1B" stop-opacity="0.18"/>
      <stop offset="60%"  stop-color="#060D1B" stop-opacity="0.05"/>
      <stop offset="100%" stop-color="#060D1B" stop-opacity="0"/>
    </radialGradient>
  </defs>

  <circle cx="100" cy="100" r="98" fill="url(#haloHn)"/>

  <g fill="#060D1B">
    <circle cx="32"  cy="38"  r="0.9"/>
    <circle cx="172" cy="56"  r="0.7"/>
    <circle cx="160" cy="158" r="1"/>
    <circle cx="38"  cy="162" r="0.7"/>
    <circle cx="184" cy="100" r="0.8"/>
    <circle cx="18"  cy="100" r="0.7"/>
    <circle cx="50"  cy="22"  r="0.5"/>
    <circle cx="148" cy="180" r="0.5"/>
  </g>

  <g stroke="#060D1B" stroke-linecap="round">
    <g stroke-width="1.3" opacity="0.7">
      <line x1="100" y1="20"  x2="100" y2="6"/>
      <line x1="100" y1="180" x2="100" y2="194"/>
      <line x1="74"  y1="35"  x2="64"  y2="20"/>
      <line x1="126" y1="35"  x2="136" y2="20"/>
      <line x1="74"  y1="165" x2="64"  y2="180"/>
      <line x1="126" y1="165" x2="136" y2="180"/>
    </g>
    <g stroke-width="0.8" opacity="0.45">
      <line x1="60"  y1="60"  x2="50"  y2="50"/>
      <line x1="140" y1="60"  x2="150" y2="50"/>
      <line x1="60"  y1="140" x2="50"  y2="150"/>
      <line x1="140" y1="140" x2="150" y2="150"/>
      <line x1="48"  y1="100" x2="34"  y2="100"/>
      <line x1="152" y1="100" x2="166" y2="100"/>
    </g>
  </g>

  <path d="M 100,25 C 132,55 132,145 100,175 C 68,145 68,55 100,25 Z"
        fill="none" stroke="#060D1B" stroke-width="1.9" stroke-linecap="round"/>

  <circle cx="100" cy="100" r="28" fill="none" stroke="#060D1B" stroke-width="0.9" opacity="0.7"/>
  <circle cx="100" cy="100" r="20" fill="none" stroke="#060D1B" stroke-width="0.7" opacity="0.55"/>
  <circle cx="100" cy="100" r="13" fill="none" stroke="#060D1B" stroke-width="0.6" opacity="0.45"/>

  <circle cx="100" cy="100" r="3.2" fill="#060D1B"/>
</svg>
